<?xml version="1.0" encoding="UTF-8"?>
<svg xmlns="http://www.w3.org/2000/svg" xmlns:xlink="http://www.w3.org/1999/xlink" width="150px" height="44px" viewBox="0 0 143 42" version="1.1">
<g id="surface1">
<path style=" stroke:none;fill-rule:nonzero;fill:rgb(89.803922%,20.784314%,8.627451%);fill-opacity:1;" d="M 28.613281 5.507812 C 30.722656 4.222656 32.664062 2.679688 34.390625 0.914062 C 35.804688 -0.519531 29.585938 0.121094 28.089844 1.421875 C 26.375 2.847656 24.777344 4.410156 23.3125 6.09375 C 22.429688 7.109375 26.675781 6.664062 28.613281 5.507812 Z M 142.292969 37.804688 C 143.398438 38.472656 143.351562 35.011719 141.128906 33.621094 C 133.164062 28.65625 111.363281 37.316406 103.117188 38.300781 C 101.566406 38.488281 101.003906 38.09375 101.371094 37.042969 C 102.070312 35.023438 104.832031 31.285156 105.40625 30 C 105.980469 28.71875 105.859375 24.554688 99.628906 24.554688 C 94.539062 24.554688 89.875 26.921875 86.589844 29.902344 C 83.460938 32.570312 77.402344 37.855469 73.675781 37.855469 C 69.808594 37.855469 81.121094 26.175781 81.746094 25.585938 C 83.425781 24.003906 78.125 24.398438 75.898438 26.089844 C 75.011719 26.765625 71.453125 30.574219 69.230469 34.265625 C 62.804688 38.714844 56.402344 39.746094 59.441406 36.046875 C 61.0625 34.070312 63.808594 31.429688 65.6875 29.339844 C 68.320312 26.417969 67.84375 24.492188 62.035156 24.492188 C 54.261719 24.492188 53.433594 25.171875 49.050781 30.320312 C 48.238281 31.273438 48.65625 33.671875 49.5 32.84375 C 54.761719 27.628906 54.640625 28.054688 61.605469 28.054688 C 60.488281 29.246094 58.488281 30.433594 55.105469 34.738281 C 52.078125 38.578125 54.058594 41.679688 58.347656 41.679688 C 60.714844 41.679688 64.253906 40.570312 67.488281 38.285156 C 67.101562 40.304688 67.902344 41.722656 70.957031 41.722656 C 74.488281 41.722656 78.523438 39.613281 81.871094 37.269531 C 81.453125 39.796875 82.761719 41.722656 86.5 41.722656 C 89.378906 41.722656 92.734375 40.585938 96.195312 37.582031 C 96.195312 39.875 97.792969 41.699219 100.804688 41.699219 C 108.125 41.699219 133.476562 32.480469 142.292969 37.804688 Z M 88.449219 38.410156 C 83.636719 38.410156 93.277344 27.398438 99.550781 27.398438 C 103.3125 27.378906 93.089844 38.410156 88.449219 38.410156 Z M 84.636719 21.375 C 87.296875 19.664062 89.789062 17.695312 92.074219 15.507812 C 93.484375 14.066406 87.269531 14.707031 85.773438 15.984375 C 83.71875 17.734375 81.777344 19.613281 79.96875 21.613281 C 79.085938 22.648438 82.695312 22.542969 84.636719 21.375 Z M 46.640625 33.105469 C 44.757812 34.957031 40.628906 38.039062 37.023438 38.039062 C 34.355469 38.039062 39.667969 33.25 42.300781 29.394531 C 44.824219 25.707031 42.757812 24.605469 40.6875 24.605469 C 35.550781 24.605469 30.53125 28.210938 27.132812 30.753906 C 28.160156 29.398438 29.765625 27.605469 31.464844 25.355469 C 32.40625 24.105469 26.746094 24.554688 25.300781 26.464844 C 24.835938 27.070312 24.324219 27.746094 23.785156 28.484375 C 18.871094 34.386719 11.445312 38.375 7.804688 38.375 C 5.785156 38.375 5.035156 36.972656 6.289062 34.335938 C 9.316406 27.949219 19.832031 15.824219 25.535156 10.515625 C 28.128906 8.085938 20.34375 9.074219 18.558594 10.867188 C 10.664062 18.832031 2.710938 27.722656 0.464844 34.636719 C -0.777344 38.492188 0.367188 41.902344 5.117188 41.902344 C 9.011719 41.902344 13.328125 39.96875 16.996094 37.675781 C 16.09375 38.90625 15.269531 40.007812 14.628906 40.921875 C 13.597656 42.328125 18.84375 41.816406 19.945312 40.417969 C 24.097656 35.101562 34.074219 28.566406 36.835938 28.566406 C 39.359375 28.566406 30.667969 35.09375 30.75 39.089844 C 30.847656 44.335938 42.988281 41.109375 47.101562 35.71875 C 47.722656 34.867188 47.222656 32.542969 46.640625 33.105469 Z M 46.640625 33.105469 "/>
</g>
</svg>
