<?xml version="1.0" encoding="UTF-8"?>
<svg xmlns="http://www.w3.org/2000/svg" xmlns:xlink="http://www.w3.org/1999/xlink" width="24px" height="24px" viewBox="0 0 24 24" version="1.1">
<g id="surface1">
<path style=" stroke:none;fill-rule:nonzero;fill:rgb(25.882353%,52.156863%,95.686275%);fill-opacity:1;" d="M 3.601562 0 L 20.398438 0 C 22.386719 0 24 1.613281 24 3.601562 L 24 20.398438 C 24 22.386719 22.386719 24 20.398438 24 L 3.601562 24 C 1.613281 24 0 22.386719 0 20.398438 L 0 3.601562 C 0 1.613281 1.613281 0 3.601562 0 Z M 3.601562 0 "/>
<path style=" stroke:none;fill-rule:nonzero;fill:rgb(100%,100%,100%);fill-opacity:1;" d="M 9.984375 5.203125 L 4.96875 9.609375 L 8.203125 9.609375 C 8.4375 11.71875 10.125 12.609375 11.859375 12.75 C 11.53125 13.59375 11.671875 14.015625 12.1875 14.578125 C 10.171875 14.625 7.359375 15.796875 7.359375 17.71875 C 7.546875 19.828125 10.3125 20.25 11.671875 20.25 C 13.453125 20.296875 15.46875 19.359375 15.890625 17.71875 C 16.078125 16.078125 15.421875 15.1875 14.4375 14.390625 C 13.359375 13.546875 13.125 13.078125 13.453125 12.515625 C 14.15625 11.71875 15.09375 11.25 15.28125 10.125 C 15.375 9.328125 15.1875 8.8125 15 8.109375 L 17.109375 6.328125 L 17.0625 7.078125 C 16.921875 7.171875 16.828125 7.359375 16.828125 7.5 L 16.828125 12.328125 C 16.921875 12.9375 17.859375 12.84375 17.90625 12.328125 L 17.90625 7.5 C 17.90625 7.359375 17.8125 7.171875 17.671875 7.125 L 17.671875 5.953125 L 18.421875 5.203125 Z M 12.703125 11.8125 C 9.84375 12.28125 8.625 7.734375 10.921875 7.171875 C 13.546875 6.65625 14.8125 11.203125 12.703125 11.8125 Z M 12.46875 15.234375 C 15.28125 15.84375 15.328125 18.1875 12.9375 18.890625 C 10.875 19.3125 9.09375 18.703125 9.140625 17.484375 C 9.140625 16.3125 10.78125 15.234375 12.46875 15.234375 Z M 12.46875 15.234375 "/>
</g>
</svg>
