<?xml version="1.0" encoding="UTF-8"?>
<svg xmlns="http://www.w3.org/2000/svg" xmlns:xlink="http://www.w3.org/1999/xlink" width="24px" height="24px" viewBox="0 0 24 24" version="1.1">
<g id="surface1">
<path style=" stroke:none;fill-rule:nonzero;fill:rgb(0%,81.568627%,68.627451%);fill-opacity:1;" d="M 3.601562 0 L 20.398438 0 C 22.386719 0 24 1.613281 24 3.601562 L 24 20.398438 C 24 22.386719 22.386719 24 20.398438 24 L 3.601562 24 C 1.613281 24 0 22.386719 0 20.398438 L 0 3.601562 C 0 1.613281 1.613281 0 3.601562 0 Z M 3.601562 0 "/>
<path style=" stroke:none;fill-rule:nonzero;fill:rgb(99.607843%,100%,100%);fill-opacity:1;" d="M 12.703125 17.953125 C 12 17.765625 11.625 17.484375 11.015625 16.734375 C 10.59375 16.171875 9.796875 14.90625 9.375 14.25 L 9.09375 13.734375 L 7.96875 13.734375 L 7.96875 15.328125 C 8.015625 17.34375 7.96875 17.296875 8.859375 17.4375 L 9.328125 17.484375 L 9.328125 17.859375 L 5.578125 17.859375 L 5.578125 17.671875 C 5.578125 17.484375 5.625 17.484375 6 17.390625 C 6.46875 17.296875 6.65625 17.15625 6.703125 16.734375 C 6.75 16.546875 6.75 15.28125 6.75 13.03125 C 6.75 9.75 6.703125 9.65625 6.609375 9.421875 C 6.46875 9.1875 6.28125 9.09375 5.765625 9.046875 C 5.578125 9 5.53125 9 5.53125 8.8125 L 5.53125 8.625 L 7.546875 8.578125 C 10.125 8.53125 10.59375 8.578125 11.34375 9.09375 C 12.046875 9.5625 12.375 10.21875 12.28125 11.109375 C 12.234375 12.09375 11.484375 13.078125 10.546875 13.453125 C 10.359375 13.5 10.21875 13.59375 10.21875 13.59375 C 10.21875 13.6875 11.015625 14.90625 11.53125 15.609375 C 12.234375 16.59375 12.796875 17.109375 13.21875 17.34375 C 13.40625 17.4375 13.640625 17.484375 13.6875 17.484375 C 13.828125 17.484375 13.828125 17.53125 13.828125 17.671875 C 13.828125 17.8125 13.78125 17.90625 13.734375 17.90625 C 13.5 18 12.84375 18 12.515625 17.90625 Z M 10.03125 12.84375 C 10.6875 12.515625 11.0625 12 11.109375 11.203125 C 11.15625 10.59375 11.015625 10.171875 10.640625 9.796875 C 10.21875 9.328125 9.46875 9.140625 8.390625 9.234375 L 7.921875 9.28125 L 7.921875 11.109375 C 7.921875 12.796875 7.921875 12.984375 8.015625 12.984375 C 8.0625 12.984375 8.4375 13.03125 8.859375 12.984375 C 9.515625 12.984375 9.65625 12.9375 9.984375 12.796875 Z M 10.03125 12.84375 "/>
<path style=" stroke:none;fill-rule:nonzero;fill:rgb(99.607843%,100%,100%);fill-opacity:1;" d="M 15.046875 10.6875 C 13.875 10.5 13.453125 9.75 13.546875 7.828125 C 13.59375 6.84375 13.6875 6.421875 14.0625 6.046875 C 14.390625 5.71875 14.671875 5.625 15.234375 5.578125 C 15.84375 5.53125 16.21875 5.671875 16.59375 5.953125 C 16.828125 6.140625 17.015625 6.421875 17.015625 6.5625 C 17.015625 6.609375 16.875 6.65625 16.734375 6.75 L 16.453125 6.890625 L 16.3125 6.75 C 16.078125 6.46875 15.890625 6.328125 15.65625 6.234375 C 15.1875 6.09375 14.71875 6.328125 14.484375 6.75 C 14.34375 6.984375 14.34375 7.03125 14.34375 8.109375 C 14.34375 9.140625 14.34375 9.28125 14.484375 9.46875 C 14.671875 9.796875 15.046875 9.984375 15.46875 9.9375 C 16.078125 9.890625 16.40625 9.46875 16.40625 8.8125 L 16.40625 8.484375 L 15.46875 8.484375 L 15.46875 7.875 L 17.15625 7.875 L 17.15625 8.578125 C 17.15625 9.140625 17.109375 9.328125 17.015625 9.609375 C 16.734375 10.3125 15.9375 10.734375 15.046875 10.640625 Z M 15.046875 10.6875 "/>
</g>
</svg>
